<?xml version="1.0" encoding="UTF-8" standalone="no"?>
<svg width="18px" height="21px" viewBox="0 0 18 21" version="1.1" xmlns="http://www.w3.org/2000/svg" xmlns:xlink="http://www.w3.org/1999/xlink">
    <!-- Generator: Sketch 47.1 (45422) - http://www.bohemiancoding.com/sketch -->
    <title>Group</title>
    <desc>Created with Sketch.</desc>
    <defs></defs>
    <g id="Page-1" stroke="none" stroke-width="1" fill="none" fill-rule="evenodd">
        <g id="注册" transform="translate(-551.000000, -533.000000)">
            <g id="Group" transform="translate(551.000000, 533.000000)">
                <g id="密码-4" fill-opacity="0.6" fill-rule="nonzero" fill="#FFFFFF">
                    <path d="M16.5004664,7.92897308 L1.50027164,7.92897308 C0.671719053,7.92897308 0,8.59389587 0,9.41507501 L0,19.3256867 C0,20.1468049 0.671719053,20.8125 1.50027164,20.8125 L16.5004869,20.8125 C17.3282604,20.8125 18,20.1468049 18,19.3256867 L18,9.41507501 C18,8.5939162 17.3282604,7.92897308 16.5004664,7.92897308 Z M16.5004664,18.3344711 C16.5004664,19.1555892 16.3288721,19.325707 15.500299,19.325707 L2.49963952,19.325707 C1.67110744,19.325707 1.50027164,19.1556299 1.50027164,18.3344711 L1.50027164,10.4062906 C1.50027164,9.58515216 1.67110744,9.41507501 2.49963952,9.41507501 L15.5003195,9.41507501 C16.3288721,9.41507501 16.5004869,9.58513184 16.5004869,10.4062906 L16.5004869,18.3344711 L16.5004664,18.3344711 Z M1.91246707,7.18098322 C2.32890623,7.18098322 2.66758466,6.85204816 2.67900378,6.44205817 L2.68058237,6.44213947 C3.35847226,3.60241205 5.92724154,1.48685394 8.99998975,1.48685394 C11.401839,1.48685394 13.4925222,2.78228979 14.6162294,4.70327948 C14.7331267,4.96559015 14.9977551,5.14873608 15.3057229,5.14873608 C15.7219365,5.14873608 16.0593439,4.814354 16.0593439,4.40186407 C16.0593439,4.24093304 16.0078041,4.09201392 15.9204693,3.970086 C14.5379971,1.59977802 11.9614579,0 8.99998975,0 C5.13024017,0 1.9075468,2.63178534 1.16557043,6.24771332 C1.16206474,6.26261133 1.15901007,6.27765161 1.15640643,6.29289514 C1.15279823,6.31098413 1.14888252,6.32893085 1.14539733,6.34706049 L1.14902603,6.34728406 C1.1466889,6.37145013 1.14539733,6.39594141 1.14539733,6.42073755 C1.14535633,6.84062567 1.48881152,7.18098322 1.91246707,7.18098322 Z" id="Shape"></path>
                </g>
                <polyline id="Path-2" stroke="#FFFFFF" stroke-width="1.5" opacity="0.6" points="5.50683594 12.8154297 8.49316406 16.5722656 14.0947266 11.5996094"></polyline>
            </g>
        </g>
    </g>
</svg>