<?xml version="1.0" encoding="UTF-8" standalone="no"?>
<svg width="108px" height="73px" viewBox="0 0 108 73" version="1.1" xmlns="http://www.w3.org/2000/svg" xmlns:xlink="http://www.w3.org/1999/xlink">
    <!-- Generator: Sketch 47.1 (45422) - http://www.bohemiancoding.com/sketch -->
    <title>Group 5</title>
    <desc>Created with Sketch.</desc>
    <defs></defs>
    <g id="Page-1" stroke="none" stroke-width="1" fill="none" fill-rule="evenodd">
        <g id="首页" transform="translate(-326.000000, -487.000000)">
            <g id="Group-5" transform="translate(326.000000, 487.000000)">
                <path d="M7,0 L101,0 L101,0 C102.656854,-3.04359188e-16 104,1.34314575 104,3 L104,65 L4,65 L4,3 L4,3 C4,1.34314575 5.34314575,6.96569734e-15 7,6.66133815e-15 Z" id="Rectangle-8" fill="#CED0DF"></path>
                <path d="M0,65 L108,65 L108,70 L108,70 C108,71.6568542 106.656854,73 105,73 L3,73 L3,73 C1.34314575,73 2.02906125e-16,71.6568542 0,70 L0,65 Z" id="Rectangle-11" fill="#DDDFED"></path>
                <rect id="Rectangle-9" fill="#FFFFFF" x="10" y="6" width="88" height="53"></rect>
                <rect id="Rectangle-9" fill="#FF6868" x="10" y="6" width="88" height="10"></rect>
                <rect id="Rectangle-12" fill="#FFE2E2" x="15" y="21" width="35" height="33"></rect>
                <rect id="Rectangle-12" fill="#FFE2E2" x="57" y="21" width="35" height="10"></rect>
                <rect id="Rectangle-12" fill="#FFE2E2" x="57" y="33" width="35" height="10"></rect>
                <rect id="Rectangle-12" fill="#FFE2E2" x="57" y="44" width="18" height="10"></rect>
                <path d="M48.8744973,65 L59.1255027,65 L59.1255027,65 C59.7731652,65 60.3807328,65.3136239 60.7558635,65.8415857 L63,69 L45,69 L47.2441365,65.8415857 L47.2441365,65.8415857 C47.6192672,65.3136239 48.2268348,65 48.8744973,65 Z" id="Rectangle-13" fill="#EFF0F8" transform="translate(54.000000, 67.000000) rotate(180.000000) translate(-54.000000, -67.000000) "></path>
            </g>
        </g>
    </g>
</svg>