<?xml version="1.0" encoding="UTF-8" standalone="no"?>
<svg width="104px" height="70px" viewBox="0 0 104 70" version="1.1" xmlns="http://www.w3.org/2000/svg" xmlns:xlink="http://www.w3.org/1999/xlink">
    <!-- Generator: Sketch 47.1 (45422) - http://www.bohemiancoding.com/sketch -->
    <title>Group 4</title>
    <desc>Created with Sketch.</desc>
    <defs></defs>
    <g id="Page-1" stroke="none" stroke-width="1" fill="none" fill-rule="evenodd">
        <g id="首页" transform="translate(-668.000000, -498.000000)">
            <g id="Group-4" transform="translate(668.000000, 498.000000)">
                <rect id="Rectangle-14" fill="#EAEBFC" x="0" y="0" width="104" height="70" rx="2"></rect>
                <rect id="Rectangle-14" fill="#FFFFFF" x="4.16" y="10.2941176" width="95.68" height="55.5882353"></rect>
                <rect id="Rectangle-14" fill="#5959E1" x="35.84" y="10.2941176" width="64" height="13.3823529"></rect>
                <rect id="Rectangle-14" fill="#EAEBFC" x="39.52" y="27.7941176" width="31.2" height="35"></rect>
                <rect id="Rectangle-14" fill="#EAEBFC" x="72.8" y="27.7941176" width="23.92" height="35"></rect>
                <rect id="Rectangle-14" fill="#CED0DF" x="4.16" y="10.2941176" width="33.28" height="55.5882353"></rect>
                <ellipse id="Oval-3" fill="#5959E1" cx="6.24" cy="5.14705882" rx="2.08" ry="2.05882353"></ellipse>
                <ellipse id="Oval-3" fill="#5959E1" cx="12.48" cy="5.14705882" rx="2.08" ry="2.05882353"></ellipse>
                <ellipse id="Oval-3" fill="#5959E1" cx="18.72" cy="5.14705882" rx="2.08" ry="2.05882353"></ellipse>
                <rect id="Rectangle-15" fill="#FFFFFF" x="8.32" y="29.8529412" width="26" height="3.08823529" rx="1.54411765"></rect>
                <rect id="Rectangle-15" fill="#FFFFFF" x="8.32" y="21.6176471" width="26" height="3.08823529" rx="1.54411765"></rect>
                <rect id="Rectangle-15" fill="#FFFFFF" x="8.32" y="38.0882353" width="26" height="3.08823529" rx="1.54411765"></rect>
                <rect id="Rectangle-15" fill="#FFFFFF" x="8.32" y="46.3235294" width="26" height="3.08823529" rx="1.54411765"></rect>
                <rect id="Rectangle-15" fill="#FFFFFF" x="8.32" y="54.5588235" width="26" height="3.08823529" rx="1.54411765"></rect>
            </g>
        </g>
    </g>
</svg>