<?xml version="1.0" encoding="UTF-8" standalone="no"?>
<svg width="104px" height="74px" viewBox="0 0 104 74" version="1.1" xmlns="http://www.w3.org/2000/svg" xmlns:xlink="http://www.w3.org/1999/xlink">
    <!-- Generator: Sketch 47.1 (45422) - http://www.bohemiancoding.com/sketch -->
    <title>Group 3</title>
    <desc>Created with Sketch.</desc>
    <defs></defs>
    <g id="Page-1" stroke="none" stroke-width="1" fill="none" fill-rule="evenodd">
        <g id="首页" transform="translate(-1008.000000, -496.000000)" fill-rule="nonzero">
            <g id="Group-3" transform="translate(1008.000000, 496.000000)">
                <path d="M39.8125,6.87991818 L39.8125,5.64339773 C39.8125,2.54322045 36.7989375,0 33.0031406,0 L6.8729375,0 C3.07714062,0 0,2.54322045 0,5.64356364 L0,66.7923455 C0,70.2042659 3.3865,73 7.56376563,73 L96.4362344,73 C100.6135,73 104,70.2042659 104,66.7921795 L104,16.6433364 C104,13.2383841 100.620609,10.4522727 96.451875,10.4522727 L44.28125,10.4522727 C41.8482188,10.4522727 39.8125,8.86717727 39.8125,6.87991818 Z" id="Shape" fill="#10EE95"></path>
                <path d="M96.4362344,74 L7.56376563,74 C3.3865,74 0,71.1294826 0,67.6261262 L0,20 L104,20 L104,67.6261262 C104,71.1294826 100.6135,74 96.4362344,74 Z" id="Shape" fill="#D0FBEB"></path>
                <path d="M72.6709863,42.6833301 L70.2245508,42.5087793 C69.8261426,41.0911035 69.261709,39.7432129 68.554541,38.4862891 L70.1600391,36.6299512 C71.0199609,35.6357324 70.966084,34.1461621 70.0365527,33.2167188 L66.7725586,29.9527246 C65.8423242,29.0224902 64.3512598,28.9693164 63.3571289,29.831084 L61.5021094,31.4391309 C60.2446582,30.7327539 58.8963281,30.169375 57.4783887,29.7720215 L57.3012012,27.3262012 C57.2061914,26.0151367 56.1148535,25 54.8003613,25 L50.1844336,25 C48.8687988,25 47.7769336,26.0168066 47.6833301,27.3290137 L47.5087793,29.7754492 C46.0960254,30.1725391 44.7526172,30.7344238 43.4993848,31.438252 L41.6428711,29.8300293 C40.6487402,28.9687891 39.1581152,29.0221387 38.2280566,29.9521973 L34.9641504,33.2161035 C34.0343555,34.1458105 33.9807422,35.6358203 34.8411914,36.6300391 L36.4464258,38.4847949 C35.739082,39.7417188 35.1744727,41.0896094 34.7758887,42.5071973 L32.3282227,42.6825391 C31.0163672,42.776582 30,43.8682715 30,45.1836426 L30,49.7995703 C30,51.1144141 31.0156641,52.2059277 32.3270801,52.300498 L34.771582,52.4768066 C35.1688477,53.894834 35.7320508,55.2431641 36.438252,56.5007031 L34.8299414,58.3573047 C33.9687891,59.3514355 34.0220508,60.8420605 34.9521973,61.7720313 L38.2161035,65.0359375 C39.1458105,65.9657324 40.6358203,66.0193457 41.6300391,65.1588965 L43.4847949,63.5536621 C44.7417188,64.2610059 46.0896094,64.8256152 47.5071973,65.2241113 L47.6825391,67.6717773 C47.7764941,68.9837207 48.8682715,70 50.1835547,70 L54.7994824,70 C56.1143262,70 57.2058398,68.9843359 57.3004102,67.6729199 L57.4767188,65.228418 C58.899668,64.829834 60.2524805,64.2639941 61.5137109,63.5544531 L63.3700488,65.1599512 C64.3642676,66.019873 65.8538379,65.9659961 66.7832813,65.0364648 L70.0472754,61.7725586 C70.9775098,60.8423242 71.0305957,59.3512598 70.168916,58.3571289 L68.5608691,56.5021094 C69.2672461,55.2446582 69.830625,53.8963281 70.2279785,52.4783887 L72.6737988,52.3012012 C73.9848633,52.2061914 75,51.1148535 75,49.8002734 L75,45.1843457 C75,43.8687988 73.9832813,42.7768457 72.6709863,42.6833301 Z M52.5000879,56.1018555 C47.7494238,56.1018555 43.8982324,52.2506641 43.8982324,47.5 C43.8982324,42.7493359 47.7493359,38.8981445 52.5000879,38.8981445 C57.250752,38.8981445 61.1019434,42.749248 61.1019434,47.5 C61.1018555,52.2506641 57.2506641,56.1018555 52.5000879,56.1018555 Z" id="Shape" fill="#10EE95"></path>
                <path d="M72.6584383,42.5371325 L70.1989149,42.361647 C69.7983753,40.9364676 69.2309222,39.5812704 68.519971,38.3176155 L70.1340581,36.4513366 C70.9985803,35.4517936 70.9443268,33.9542464 70.0099111,33.0198257 L66.7284554,29.7383522 C65.7932445,28.8031363 64.2942032,28.7496777 63.294754,29.6160602 L61.7168949,30.9838047 C62.5428034,33.2597266 62.9937087,35.7154637 62.9937087,38.2766159 C62.9937087,41.4797129 62.2880592,44.5174859 61.0257365,47.2450223 C61.0264434,47.2898215 61.0275037,47.3345323 61.0275037,47.3795966 C61.0275037,51.7158388 57.835911,55.3064001 53.673763,55.9310261 C50.2410335,58.2802879 46.0889587,59.6553664 41.6152504,59.6553664 C39.1199409,59.6553664 36.725186,59.2263723 34.4988468,58.4406636 C33.7570577,59.4355235 33.8472741,60.8372871 34.7379512,61.7279689 L38.0193185,65.009354 C38.9539993,65.9441282 40.4519802,65.9980285 41.4515178,65.1329715 L43.3161962,63.5191407 C44.5798442,64.2302725 45.9349458,64.7979054 47.3601174,65.1985355 L47.5363972,67.6593093 C47.630855,68.9782783 48.728473,70 50.0507927,70 L54.6914145,70 C56.0132924,70 57.1106454,68.9788969 57.2057216,67.660458 L57.3829734,65.2028652 C58.8135351,64.8021468 60.1735848,64.2332767 61.4415625,63.519936 L63.3078314,65.1340318 C64.3074573,65.9985587 65.8049081,65.9443932 66.7393238,65.0098842 L70.0207795,61.7284991 C70.9559904,60.7932831 71.0093603,59.2942337 70.1430709,58.2947791 L68.5264213,56.4298256 C69.2365772,55.1656406 69.8028817,53.8100899 70.2024494,52.3845571 L72.6613542,52.2064208 C73.9794325,52.1109906 75,51.01372 75,49.6921884 L75,45.0515415 C74.9999116,43.7288613 73.9777537,42.6311489 72.6584383,42.5371325 Z" id="Shape" fill="#10EE95"></path>
                <path d="M52.9999562,34 C45.8202956,34 40,39.8202956 40,47.0000438 C40,54.1797044 45.8202956,60 52.9999562,60 C60.1796168,60 66,54.1797044 66,46.9999562 C66,39.8202956 60.1797044,34 52.9999562,34 Z M52.9999562,55.5699799 C48.2668723,55.5699799 44.4299325,51.7330401 44.4299325,46.9999562 C44.4299325,42.2668723 48.2668723,38.4299325 52.9999562,38.4299325 C57.7330401,38.4299325 61.5699799,42.2668723 61.5699799,46.9999562 C61.5699799,51.7330401 57.7330401,55.5699799 52.9999562,55.5699799 Z" id="Shape" fill="#FFFFFF"></path>
                <path d="M61.005,47.38075 C61.118,47.322 61.002,47.127 61,47 C61.00225,47.127 61.005,47.2535 61.005,47.38075 L61.005,47.38075 Z" id="Shape" fill="#C7CFE2"></path>
            </g>
        </g>
    </g>
</svg>