<?xml version="1.0" encoding="UTF-8" standalone="no"?>
<svg width="18px" height="17px" viewBox="0 0 18 17" version="1.1" xmlns="http://www.w3.org/2000/svg" xmlns:xlink="http://www.w3.org/1999/xlink">
    <!-- Generator: Sketch 47.1 (45422) - http://www.bohemiancoding.com/sketch -->
    <title>登录</title>
    <desc>Created with Sketch.</desc>
    <defs></defs>
    <g id="Page-1" stroke="none" stroke-width="1" fill="none" fill-rule="evenodd" fill-opacity="0.6">
        <g id="登录" transform="translate(-562.000000, -395.000000)" fill-rule="nonzero" fill="#FFFFFF">
            <g transform="translate(562.000000, 395.000000)" id="Shape">
                <path d="M17.9830821,16.2441533 C17.9194784,15.9828272 17.8442667,15.7243913 17.7576651,15.469595 C17.7269264,15.3798596 17.6893569,15.292823 17.656569,15.2037623 C17.5972577,15.0408289 17.5334799,14.8795157 17.4653061,14.7200008 C17.4202227,14.617446 17.3676254,14.5169154 17.3184435,14.41571 C17.2501353,14.275372 17.181144,14.1357086 17.105322,13.998744 C17.04726,13.8934905 16.9837334,13.7909357 16.9215729,13.688381 C16.8730741,13.6080914 16.83004,13.5257777 16.7788089,13.4468375 C16.746704,13.398259 16.7105007,13.3523792 16.6783958,13.3044754 C16.6483402,13.2606197 16.6237493,13.2133905 16.5930106,13.1702096 C16.5848136,13.158065 16.5718351,13.1526673 16.562955,13.1418721 C16.0562468,12.4217099 15.4470436,11.7774862 14.7541543,11.2290911 C14.4836539,11.0158852 14.1988088,10.8242697 13.908499,10.6441242 C13.8989359,10.6373772 13.8941543,10.6279313 13.8845912,10.621859 C13.8108183,10.576654 13.7343132,10.5368465 13.6591742,10.4936656 C13.5737889,10.4444123 13.4890868,10.3938096 13.4016523,10.3465805 C13.2650359,10.2737126 13.1256873,10.2062424 12.9863386,10.1394469 C12.9139319,10.105037 12.8422083,10.0679284 12.7691185,10.034868 C12.5615723,9.94310828 12.350576,9.8591599 12.1365848,9.78320405 C12.1222401,9.77780642 12.1092615,9.77105941 12.0949168,9.76701119 C12.0320733,9.74474602 11.9664974,9.72922786 11.9036539,9.70898681 C11.8203179,9.68132401 11.7369819,9.65298651 11.6522798,9.62802253 C13.2577217,8.70494542 14.2431317,7.00645402 14.2377445,5.17161384 C14.2412304,3.79933769 13.6890762,2.48264997 12.7042258,1.51472737 C11.7243684,0.541831031 10.3912716,-0.00357280001 9.0019223,2.07133327e-05 L9.00055613,2.07133327e-05 L8.99987305,2.07133327e-05 C7.61046353,-0.00387386034 6.27725402,0.541576105 5.29756956,1.51472737 C4.31246124,2.48247926 3.76026038,3.79927826 3.76405088,5.17161384 C3.75949722,6.54409818 4.3118151,7.86117624 5.29756956,8.82850031 C5.61588569,9.14358629 5.97108825,9.40739488 6.34951556,9.62802253 C6.26413033,9.65298651 6.18079436,9.68199872 6.09609222,9.70898681 C6.03324869,9.72990257 5.969039,9.74542073 5.90619547,9.76701119 C5.89185075,9.7717341 5.8788722,9.77848114 5.86521056,9.78320405 C5.65140595,9.8587707 5.43965057,9.94310849 5.23131063,10.0355427 C5.15958704,10.0672537 5.08991269,10.1043623 5.01887218,10.1374228 C4.87679117,10.204893 4.73539323,10.2723632 4.59672761,10.3472552 C4.51134238,10.3931349 4.42868948,10.4423882 4.34535349,10.4909668 C4.26884834,10.5348224 4.19029391,10.5753046 4.11515493,10.621859 C4.1049087,10.6279313 4.10012713,10.6380519 4.09056398,10.6447989 C3.8002542,10.8256191 3.51609217,11.0165599 3.24559177,11.2290911 C2.55235722,11.7771182 1.94310407,12.4213948 1.4367911,13.1418721 C1.42791104,13.1526673 1.41493247,13.158065 1.40673549,13.1702096 C1.37599681,13.2133905 1.35140586,13.2606197 1.32135028,13.3044754 C1.28924542,13.3523792 1.25235901,13.398259 1.22093725,13.4468375 C1.16970611,13.5257777 1.12667196,13.6080914 1.07817314,13.688381 C1.0160127,13.7909357 0.952486092,13.8934905 0.894424123,13.998744 C0.818602041,14.1357086 0.750293865,14.275372 0.681302594,14.41571 C0.632120703,14.5169154 0.580206491,14.617446 0.534440016,14.7200008 C0.464082595,14.8785558 0.403971381,15.0411591 0.343177092,15.2037623 C0.309706089,15.292823 0.272136576,15.3798596 0.242080989,15.469595 C0.156012679,15.7239578 0.0801905967,15.9823688 0.0166639871,16.2441533 C-0.0448133769,16.5005401 0.068578199,16.7535535 0.278284332,16.8925422 C0.338824775,16.9342634 0.406347971,16.9650984 0.477744218,16.983627 C0.74749214,17.0448238 1.0255818,16.9216731 1.15877679,16.6820351 C1.18823877,16.6340892 1.21077079,16.5823108 1.22571881,16.5282029 C1.28241461,16.2940812 1.34935662,16.0640078 1.42654487,15.8379825 C1.43884034,15.8015486 1.45455123,15.7678134 1.4668467,15.7320542 C1.53583798,15.5390894 1.60961081,15.3474739 1.69362986,15.1599067 C1.70387608,15.1369668 1.71617156,15.1153763 1.72641778,15.0917617 C1.82068308,14.8880016 1.9210961,14.6869404 2.03243845,14.4919514 L2.0338046,14.4899273 C2.15545187,14.2769245 2.28697073,14.069571 2.42794283,13.8685265 L2.43067515,13.8611048 C3.0483568,12.9786886 3.84247854,12.2305884 4.76408267,11.6629247 C4.76681499,11.6609006 4.7702304,11.6615752 4.77296272,11.6595511 C5.36616376,11.2952545 6.00532373,11.0096523 6.67397944,10.810101 C6.72930907,10.7939081 6.78395562,10.7756911 6.83996833,10.7608477 C6.95472607,10.7291367 7.07153306,10.7014739 7.18765696,10.6751605 C7.49966573,10.6024365 7.81615111,10.5499228 8.13509146,10.5179549 C8.21296279,10.5091837 8.29083412,10.4997379 8.36870545,10.4936656 C8.57704541,10.4781474 8.78675152,10.4673522 8.99918996,10.4673522 C9.21162839,10.4673522 9.42065145,10.4781474 9.62967449,10.4936656 C9.70754581,10.4997379 9.78610022,10.5091837 9.86397154,10.5179549 C10.1822734,10.5496449 10.4980956,10.6021622 10.8093568,10.6751605 C10.9268469,10.7014739 11.0436539,10.7291367 11.1597778,10.7608477 C11.2137412,10.7756911 11.2670216,10.7932334 11.320302,10.8094262 C11.9876729,11.0091381 12.6284037,11.2918384 13.2254172,11.6595511 C13.2281495,11.6615752 13.2315649,11.6609006 13.2342973,11.6629247 C14.1563429,12.2300259 14.9505711,12.9782263 15.5677048,13.8611048 C15.569754,13.8638036 15.569754,13.8665024 15.5711202,13.8685265 C15.845036,14.2591791 16.0793331,14.6700728 16.2753775,15.0971594 L16.3047501,15.1572079 C16.3908184,15.3481486 16.4659574,15.544487 16.5369979,15.7421748 C16.5479272,15.7738858 16.5615888,15.8035727 16.5725181,15.8352837 C16.6490233,16.0619836 16.7173315,16.2934065 16.7733442,16.5275282 C16.8525679,16.8574901 17.1876004,17.0615415 17.5216603,16.9832896 C17.8557202,16.9050378 18.0623058,16.5741152 17.9830821,16.2441533 L17.9830821,16.2441533 Z M12.9945355,5.17026443 C12.9919016,7.34804986 11.2053883,9.11294941 9.00055613,9.11592349 C6.79572398,9.11294941 5.00921066,7.34804986 5.00657671,5.17026443 C5.00921146,2.99258861 6.79583447,1.22788251 9.00055613,1.22528008 C11.2052778,1.22788251 12.9919008,2.99258861 12.9945355,5.17026443 Z"></path>
            </g>
        </g>
    </g>
</svg>